<?xml version="1.0" standalone="no"?><!DOCTYPE svg PUBLIC "-//W3C//DTD SVG 1.1//EN" "http://www.w3.org/Graphics/SVG/1.1/DTD/svg11.dtd"><svg t="1597632979773" class="icon" viewBox="0 0 1024 1024" version="1.1" xmlns="http://www.w3.org/2000/svg" p-id="5411" data-spm-anchor-id="a313x.7781069.0.i78" xmlns:xlink="http://www.w3.org/1999/xlink" width="200" height="200"><defs><style type="text/css"></style></defs><path d="M559.616 501.76l-41.472 83.968L476.672 501.76h-44.544L486.4 602.112h-35.328v22.528h47.104v19.968h-47.104v23.04h47.104v43.008h39.936v-43.008h47.104v-23.04h-47.104V624.64h47.104v-22.528h-35.84L603.648 501.76z" fill="#eaa991" p-id="5412" data-spm-anchor-id="a313x.7781069.0.i77" class="selected"></path><path d="M512 0C229.376 0 0 229.376 0 512s229.376 512 512 512 512-229.376 512-512S794.624 0 512 0z m254.464 743.424c0 47.104-38.4 85.504-85.504 85.504H337.92c-47.104 0-85.504-38.4-85.504-85.504V376.32c20.48 11.776 44.544 20.48 70.144 27.136 37.376 11.776 111.104 31.744 187.392 31.744 75.776 0 150.016-20.48 187.392-31.744 31.744-9.728 52.736-18.432 69.632-27.136v367.104z m0-418.304c0 12.8-136.704 68.608-257.024 68.608C389.12 393.728 252.416 337.92 252.416 325.12v-29.696C252.416 248.32 290.816 209.92 337.92 209.92h343.04c47.104 0 85.504 38.4 85.504 85.504v29.696z" fill="#eaa991" p-id="5413" data-spm-anchor-id="a313x.7781069.0.i74" class=""></path></svg>