<?xml version="1.0" standalone="no"?><!DOCTYPE svg PUBLIC "-//W3C//DTD SVG 1.1//EN" "http://www.w3.org/Graphics/SVG/1.1/DTD/svg11.dtd"><svg t="1597633147413" class="icon" viewBox="0 0 1024 1024" version="1.1" xmlns="http://www.w3.org/2000/svg" p-id="11492" data-spm-anchor-id="a313x.7781069.0.i85" xmlns:xlink="http://www.w3.org/1999/xlink" width="200" height="200"><defs><style type="text/css"></style></defs><path d="M512 1024C229.24 1024 0 794.76 0 512S229.24 0 512 0s512 229.24 512 512-229.24 512-512 512z m284.217-707.675c0-12.22-5.78-23.575-17.363-34.065-11.582-10.513-27.466-19.797-47.672-27.853-20.207-8.055-43.85-14.404-70.952-19.046a517.12 517.12 0 0 0-87.222-6.963c-31.039 0-60.098 2.32-87.2 6.963-27.102 4.642-50.745 10.99-70.951 19.046-20.207 8.056-36.09 17.34-47.673 27.853-11.583 10.49-17.363 21.845-17.363 34.065 0 12.22 5.917 23.575 17.75 34.088 11.81 10.467 27.83 19.66 48.014 27.466 20.207 7.805 43.872 13.926 70.974 18.318 27.08 4.392 56.161 6.6 87.2 6.6 31.038 0 59.983-2.208 86.835-6.6 26.851-4.392 50.38-10.513 70.588-18.318 20.206-7.828 36.09-16.976 47.672-27.466 11.583-10.513 17.363-21.868 17.363-34.088z m-445.668 58.618a18280.903 18280.903 0 0 0-0.728 156.809v184.661c0 8.784 5.052 17.954 15.155 27.489 10.104 9.512 25.009 18.068 44.715 25.645 19.706 7.555 44.078 13.79 73.16 18.66 29.08 4.892 62.577 7.35 100.51 7.35 37.456 0 69.61-2.822 96.461-8.42 26.852-5.62 48.902-12.583 66.15-20.89s29.924-16.975 38.048-26.032c8.146-9.033 12.197-16.952 12.197-23.802v-341.47c-13.79 10.74-31.039 20.526-51.723 29.31-18.228 7.327-41.416 14.04-69.473 20.16-28.103 6.1-62.1 9.149-102.013 9.149-39.413 0-73.046-3.05-100.876-9.148-27.83-6.121-50.881-12.834-69.108-20.162-21.163-8.783-38.685-18.568-52.475-29.309z m-36.204 7.328h-132.3l57.64 167.07-57.64 167.072h132.3V382.271z" fill="#83c6c2" p-id="11493" data-spm-anchor-id="a313x.7781069.0.i84" class="selected"></path><path d="M573.759 280.417c-18.728 0-34.498 3.185-47.31 9.534-12.81 6.35-19.205 13.927-19.205 22.71s6.394 16.248 19.206 22.346c12.811 6.122 28.58 9.17 47.309 9.17 18.227 0 33.883-3.048 46.922-9.17 13.061-6.098 19.592-13.562 19.592-22.346s-6.53-16.36-19.57-22.71c-13.061-6.371-28.717-9.534-46.944-9.534z" fill="#78C0E8" p-id="11494"></path></svg>