<?xml version="1.0" standalone="no"?><!DOCTYPE svg PUBLIC "-//W3C//DTD SVG 1.1//EN" "http://www.w3.org/Graphics/SVG/1.1/DTD/svg11.dtd"><svg t="1597448777062" class="icon" viewBox="0 0 1024 1024" version="1.1" xmlns="http://www.w3.org/2000/svg" p-id="2083" xmlns:xlink="http://www.w3.org/1999/xlink" width="200" height="200"><defs><style type="text/css"></style></defs><path d="M512 1005.714286C784.676571 1005.714286 1005.714286 784.676571 1005.714286 512S784.676571 18.285714 512 18.285714 18.285714 239.323429 18.285714 512 239.323429 1005.714286 512 1005.714286z m0-36.571429C259.510857 969.142857 54.857143 764.489143 54.857143 512S259.510857 54.857143 512 54.857143 969.142857 259.510857 969.142857 512 764.489143 969.142857 512 969.142857z" fill="#DBE0E6" p-id="2084"></path><path d="M512 512m-475.428571 0a475.428571 475.428571 0 1 0 950.857142 0 475.428571 475.428571 0 1 0-950.857142 0Z" fill="#FFFFFF" p-id="2085"></path><path d="M836.7420343 513.33333333c0 31.71626789-21.25909283 57.4570065-47.40202891 57.4570065h-537.22300428c-26.20039397 0-47.40203047-25.7407386-47.40203048-57.4570065s21.25909283-57.4570065 47.40203048-57.4570065h537.22300428c26.20039397 0 47.40203047 25.7407386 47.40202891 57.4570065" fill="#e98f36" p-id="2086"></path><path d="M520.72850247 829.34686516c-31.71626789 0-57.4570065-21.25909283-57.45700493-47.4020289v-537.22300585c0-26.20039397 25.7407386-47.40203047 57.45700493-47.4020289s57.4570065 21.25909283 57.4570065 47.4020289v537.22300585c0 26.20039397-25.7407386 47.40203047-57.4570065 47.4020289" fill="#e98f36" p-id="2087"></path></svg>